<svg id="visual" viewBox="0 0 900 600" width="900" height="600" xmlns="http://www.w3.org/2000/svg" xmlns:xlink="http://www.w3.org/1999/xlink" version="1.1"><rect x="0" y="0" width="900" height="600" fill="#EEEEEE"></rect><defs><linearGradient id="grad1_0" x1="33.3%" y1="100%" x2="100%" y2="0%"><stop offset="20%" stop-color="#eeeeee" stop-opacity="1"></stop><stop offset="80%" stop-color="#eeeeee" stop-opacity="1"></stop></linearGradient></defs><defs><linearGradient id="grad2_0" x1="0%" y1="100%" x2="66.7%" y2="0%"><stop offset="20%" stop-color="#eeeeee" stop-opacity="1"></stop><stop offset="80%" stop-color="#eeeeee" stop-opacity="1"></stop></linearGradient></defs><g transform="translate(900, 600)"><path d="M-459.7 0C-460.6 -66.8 -461.6 -133.6 -424.7 -175.9C-387.8 -218.3 -313.2 -236.1 -263.8 -263.8C-214.3 -291.4 -190.1 -328.8 -150.4 -363.1C-110.6 -397.4 -55.3 -428.5 0 -459.7L0 0Z" fill="#ff7700"></path></g><g transform="translate(0, 0)"><path d="M459.7 0C431.7 49.7 403.8 99.4 387.1 160.3C370.4 221.3 365.1 293.5 325.1 325.1C285 356.6 210.3 347.4 150.4 363.1C90.4 378.7 45.2 419.2 0 459.7L0 0Z" fill="#ff7700"></path></g></svg>